<?xml version="1.0" encoding="UTF-8" standalone="no"?>
<!-- This is a Stata 18.0 generated SVG file (http://www.stata.com) -->

<svg version="1.1" width="20.000in" height="10.000in" viewBox="0 0 14400 7200" xmlns="http://www.w3.org/2000/svg" xmlns:xlink="http://www.w3.org/1999/xlink">
	<desc>Stata Graph - Mismatch_Status</desc>
	<rect x="0" y="0" width="14400" height="7200" style="fill:#EAF2F3;stroke:none"/>
	<rect x="0.00" y="0.00" width="14400.00" height="7200.00" style="fill:#1E2D53"/>
	<rect x="7.20" y="7.20" width="14385.60" height="7185.60" style="fill:none;stroke:#EAF2F3;stroke-opacity:0.00;stroke-width:14.40"/>
	<rect x="252.00" y="638.55" width="6948.00" height="2340.90" style="fill:#1E2D53"/>
	<rect x="258.12" y="644.67" width="6935.76" height="2328.66" style="fill:none;stroke:#EAF2F3;stroke-opacity:0.00;stroke-width:12.24"/>
	<rect x="530.10" y="1159.65" width="6455.70" height="1265.85" style="fill:#FFFFFF"/>
	<rect x="536.22" y="1165.77" width="6443.46" height="1253.61" style="fill:none;stroke:#FFFFFF;stroke-width:12.24"/>
	<line x1="530.10" y1="2425.50" x2="530.10" y2="1159.65" style="stroke:#EAF2F3;stroke-width:12.24"/>
	<line x1="2610.45" y1="2425.50" x2="2610.45" y2="1159.65" style="stroke:#EAF2F3;stroke-width:12.24"/>
	<line x1="4691.25" y1="2425.50" x2="4691.25" y2="1159.65" style="stroke:#EAF2F3;stroke-width:12.24"/>
	<line x1="6771.60" y1="2425.50" x2="6771.60" y2="1159.65" style="stroke:#EAF2F3;stroke-width:12.24"/>
	<rect x="530.10" y="1982.70" width="5161.50" height="190.35" style="fill:#E37E00"/>
	<rect x="536.22" y="1988.82" width="5149.26" height="178.11" style="fill:none;stroke:#E37E00;stroke-width:12.24"/>
	<rect x="530.10" y="1792.80" width="1993.95" height="189.90" style="fill:#55752F"/>
	<rect x="536.22" y="1798.92" width="1981.71" height="177.66" style="fill:none;stroke:#55752F;stroke-width:12.24"/>
	<rect x="530.10" y="1602.45" width="4008.15" height="190.35" style="fill:#90353B"/>
	<rect x="536.22" y="1608.57" width="3995.91" height="178.11" style="fill:none;stroke:#90353B;stroke-width:12.24"/>
	<rect x="530.10" y="1412.10" width="3017.25" height="190.35" style="fill:#1A476F"/>
	<rect x="536.22" y="1418.22" width="3005.01" height="178.11" style="fill:none;stroke:#1A476F;stroke-width:12.24"/>
	<text x="5791.50" y="2122.79" style="font-family:'Helvetica';font-size:127.35px;fill:#808080">1240433</text>
	<text x="2624.40" y="1932.44" style="font-family:'Helvetica';font-size:127.35px;fill:#808080">479270</text>
	<text x="4638.15" y="1742.08" style="font-family:'Helvetica';font-size:127.35px;fill:#808080">963294</text>
	<text x="3647.25" y="1551.74" style="font-family:'Helvetica';font-size:127.35px;fill:#808080">725146</text>
	<line x1="530.10" y1="2425.50" x2="6985.80" y2="2425.50" style="stroke:#000000;stroke-width:12.24"/>
	<line x1="530.10" y1="2425.50" x2="530.10" y2="2510.55" style="stroke:#FFFFFF;stroke-width:12.24"/>
	<text x="530.10" y="2671.70" style="font-family:'Helvetica';font-size:170.10px;fill:#FFFFff" text-anchor="middle">0</text>
	<line x1="2610.45" y1="2425.50" x2="2610.45" y2="2510.55" style="stroke:#FFFFFF;stroke-width:12.24"/>
	<text x="2610.45" y="2671.70" style="font-family:'Helvetica';font-size:170.10px;fill:#FFFFff" text-anchor="middle">500000</text>
	<line x1="4691.25" y1="2425.50" x2="4691.25" y2="2510.55" style="stroke:#FFFFFF;stroke-width:12.24"/>
	<text x="4691.25" y="2671.70" style="font-family:'Helvetica';font-size:170.10px;fill:#FFFFff" text-anchor="middle">1000000</text>
	<line x1="6771.60" y1="2425.50" x2="6771.60" y2="2510.55" style="stroke:#FFFFFF;stroke-width:12.24"/>
	<text x="6771.60" y="2671.70" style="font-family:'Helvetica';font-size:170.10px;fill:#FFFFff" text-anchor="middle">1500000</text>
	<line x1="530.10" y1="2425.50" x2="530.10" y2="1159.65" style="stroke:#000000;stroke-width:12.24"/>
	<text x="3757.95" y="1052.91" style="font-family:'Helvetica';font-size:233.55px;fill:#FFFFff" text-anchor="middle">U.S. Citizens</text>
	<rect x="7200.00" y="638.55" width="6948.00" height="2340.90" style="fill:#1E2D53"/>
	<rect x="7206.12" y="644.67" width="6935.76" height="2328.66" style="fill:none;stroke:#EAF2F3;stroke-opacity:0.00;stroke-width:12.24"/>
	<rect x="7478.10" y="1159.65" width="6455.70" height="1265.85" style="fill:#FFFFFF"/>
	<rect x="7484.22" y="1165.77" width="6443.46" height="1253.61" style="fill:none;stroke:#FFFFFF;stroke-width:12.24"/>
	<line x1="7478.10" y1="2425.50" x2="7478.10" y2="1159.65" style="stroke:#EAF2F3;stroke-width:12.24"/>
	<line x1="8726.40" y1="2425.50" x2="8726.40" y2="1159.65" style="stroke:#EAF2F3;stroke-width:12.24"/>
	<line x1="9974.70" y1="2425.50" x2="9974.70" y2="1159.65" style="stroke:#EAF2F3;stroke-width:12.24"/>
	<line x1="11223.00" y1="2425.50" x2="11223.00" y2="1159.65" style="stroke:#EAF2F3;stroke-width:12.24"/>
	<line x1="12471.30" y1="2425.50" x2="12471.30" y2="1159.65" style="stroke:#EAF2F3;stroke-width:12.24"/>
	<line x1="13719.60" y1="2425.50" x2="13719.60" y2="1159.65" style="stroke:#EAF2F3;stroke-width:12.24"/>
	<rect x="7478.10" y="1982.70" width="6075.00" height="190.35" style="fill:#E37E00"/>
	<rect x="7484.22" y="1988.82" width="6062.76" height="178.11" style="fill:none;stroke:#E37E00;stroke-width:12.24"/>
	<rect x="7478.10" y="1792.80" width="1774.80" height="189.90" style="fill:#55752F"/>
	<rect x="7484.22" y="1798.92" width="1762.56" height="177.66" style="fill:none;stroke:#55752F;stroke-width:12.24"/>
	<rect x="7478.10" y="1602.45" width="5671.80" height="190.35" style="fill:#90353B"/>
	<rect x="7484.22" y="1608.57" width="5659.56" height="178.11" style="fill:none;stroke:#90353B;stroke-width:12.24"/>
	<rect x="7478.10" y="1412.10" width="3289.05" height="190.35" style="fill:#1A476F"/>
	<rect x="7484.22" y="1418.22" width="3276.81" height="178.11" style="fill:none;stroke:#1A476F;stroke-width:12.24"/>
	<text x="13653.45" y="2122.79" style="font-family:'Helvetica';font-size:127.35px;fill:#808080">97336</text>
	<text x="9352.80" y="1932.44" style="font-family:'Helvetica';font-size:127.35px;fill:#808080">28439</text>
	<text x="13250.25" y="1742.08" style="font-family:'Helvetica';font-size:127.35px;fill:#808080">90876</text>
	<text x="10867.05" y="1551.74" style="font-family:'Helvetica';font-size:127.35px;fill:#808080">52695</text>
	<line x1="7478.10" y1="2425.50" x2="13933.80" y2="2425.50" style="stroke:#000000;stroke-width:12.24"/>
	<line x1="7478.10" y1="2425.50" x2="7478.10" y2="2510.55" style="stroke:#FFFFFF;stroke-width:12.24"/>
	<text x="7478.10" y="2671.70" style="font-family:'Helvetica';font-size:170.10px;fill:#FFFFff" text-anchor="middle">0</text>
	<line x1="8726.40" y1="2425.50" x2="8726.40" y2="2510.55" style="stroke:#FFFFFF;stroke-width:12.24"/>
	<text x="8726.40" y="2671.70" style="font-family:'Helvetica';font-size:170.10px;fill:#FFFFff" text-anchor="middle">20000</text>
	<line x1="9974.70" y1="2425.50" x2="9974.70" y2="2510.55" style="stroke:#FFFFFF;stroke-width:12.24"/>
	<text x="9974.70" y="2671.70" style="font-family:'Helvetica';font-size:170.10px;fill:#FFFFff" text-anchor="middle">40000</text>
	<line x1="11223.00" y1="2425.50" x2="11223.00" y2="2510.55" style="stroke:#FFFFFF;stroke-width:12.24"/>
	<text x="11223.00" y="2671.70" style="font-family:'Helvetica';font-size:170.10px;fill:#FFFFff" text-anchor="middle">60000</text>
	<line x1="12471.30" y1="2425.50" x2="12471.30" y2="2510.55" style="stroke:#FFFFFF;stroke-width:12.24"/>
	<text x="12471.30" y="2671.70" style="font-family:'Helvetica';font-size:170.10px;fill:#FFFFff" text-anchor="middle">80000</text>
	<line x1="13719.60" y1="2425.50" x2="13719.60" y2="2510.55" style="stroke:#FFFFFF;stroke-width:12.24"/>
	<text x="13719.60" y="2671.70" style="font-family:'Helvetica';font-size:170.10px;fill:#FFFFff" text-anchor="middle">100000</text>
	<line x1="7478.10" y1="2425.50" x2="7478.10" y2="1159.65" style="stroke:#000000;stroke-width:12.24"/>
	<text x="10705.95" y="1052.91" style="font-family:'Helvetica';font-size:233.55px;fill:#FFFFff" text-anchor="middle">DACA-ineligible Noncitizens</text>
	<rect x="252.00" y="2979.45" width="6948.00" height="2341.35" style="fill:#1E2D53"/>
	<rect x="258.12" y="2985.57" width="6935.76" height="2329.11" style="fill:none;stroke:#EAF2F3;stroke-opacity:0.00;stroke-width:12.24"/>
	<rect x="530.10" y="3501.00" width="6455.70" height="1265.40" style="fill:#FFFFFF"/>
	<rect x="536.22" y="3507.12" width="6443.46" height="1253.16" style="fill:none;stroke:#FFFFFF;stroke-width:12.24"/>
	<line x1="530.10" y1="4766.40" x2="530.10" y2="3501.00" style="stroke:#EAF2F3;stroke-width:12.24"/>
	<line x1="2574.45" y1="4766.40" x2="2574.45" y2="3501.00" style="stroke:#EAF2F3;stroke-width:12.24"/>
	<line x1="4618.80" y1="4766.40" x2="4618.80" y2="3501.00" style="stroke:#EAF2F3;stroke-width:12.24"/>
	<line x1="6663.15" y1="4766.40" x2="6663.15" y2="3501.00" style="stroke:#EAF2F3;stroke-width:12.24"/>
	<rect x="530.10" y="4324.05" width="5436.90" height="190.35" style="fill:#E37E00"/>
	<rect x="536.22" y="4330.17" width="5424.66" height="178.11" style="fill:none;stroke:#E37E00;stroke-width:12.24"/>
	<rect x="530.10" y="4133.70" width="1851.30" height="190.35" style="fill:#55752F"/>
	<rect x="536.22" y="4139.82" width="1839.06" height="178.11" style="fill:none;stroke:#55752F;stroke-width:12.24"/>
	<rect x="530.10" y="3943.35" width="6241.50" height="190.35" style="fill:#90353B"/>
	<rect x="536.22" y="3949.47" width="6229.26" height="178.11" style="fill:none;stroke:#90353B;stroke-width:12.24"/>
	<rect x="530.10" y="3753.00" width="5134.50" height="190.35" style="fill:#1A476F"/>
	<rect x="536.22" y="3759.12" width="5122.26" height="178.11" style="fill:none;stroke:#1A476F;stroke-width:12.24"/>
	<text x="6066.90" y="4463.69" style="font-family:'Helvetica';font-size:127.35px;fill:#808080">5319</text>
	<text x="2481.30" y="4273.34" style="font-family:'Helvetica';font-size:127.35px;fill:#808080">1811</text>
	<text x="6871.50" y="4083.44" style="font-family:'Helvetica';font-size:127.35px;fill:#808080">6106</text>
	<text x="5764.50" y="3893.09" style="font-family:'Helvetica';font-size:127.35px;fill:#808080">5023</text>
	<line x1="530.10" y1="4766.40" x2="6985.80" y2="4766.40" style="stroke:#000000;stroke-width:12.24"/>
	<line x1="530.10" y1="4766.40" x2="530.10" y2="4851.45" style="stroke:#FFFFFF;stroke-width:12.24"/>
	<text x="530.10" y="5013.05" style="font-family:'Helvetica';font-size:170.10px;fill:#FFFFff" text-anchor="middle">0</text>
	<line x1="2574.45" y1="4766.40" x2="2574.45" y2="4851.45" style="stroke:#FFFFFF;stroke-width:12.24"/>
	<text x="2574.45" y="5013.05" style="font-family:'Helvetica';font-size:170.10px;fill:#FFFFff" text-anchor="middle">2000</text>
	<line x1="4618.80" y1="4766.40" x2="4618.80" y2="4851.45" style="stroke:#FFFFFF;stroke-width:12.24"/>
	<text x="4618.80" y="5013.05" style="font-family:'Helvetica';font-size:170.10px;fill:#FFFFff" text-anchor="middle">4000</text>
	<line x1="6663.15" y1="4766.40" x2="6663.15" y2="4851.45" style="stroke:#FFFFFF;stroke-width:12.24"/>
	<text x="6663.15" y="5013.05" style="font-family:'Helvetica';font-size:170.10px;fill:#FFFFff" text-anchor="middle">6000</text>
	<line x1="530.10" y1="4766.40" x2="530.10" y2="3501.00" style="stroke:#000000;stroke-width:12.24"/>
	<text x="3757.95" y="3393.81" style="font-family:'Helvetica';font-size:233.55px;fill:#FFFFff" text-anchor="middle">DACA-eligible Noncitizens</text>
	<rect x="7200.00" y="2979.45" width="6948.00" height="2341.35" style="fill:#1E2D53"/>
	<rect x="7206.12" y="2985.57" width="6935.76" height="2329.11" style="fill:none;stroke:#EAF2F3;stroke-opacity:0.00;stroke-width:12.24"/>
	<rect x="7478.10" y="3501.00" width="6455.70" height="1265.40" style="fill:#FFFFFF"/>
	<rect x="7484.22" y="3507.12" width="6443.46" height="1253.16" style="fill:none;stroke:#FFFFFF;stroke-width:12.24"/>
	<line x1="7478.10" y1="4766.40" x2="7478.10" y2="3501.00" style="stroke:#EAF2F3;stroke-width:12.24"/>
	<line x1="9558.45" y1="4766.40" x2="9558.45" y2="3501.00" style="stroke:#EAF2F3;stroke-width:12.24"/>
	<line x1="11639.25" y1="4766.40" x2="11639.25" y2="3501.00" style="stroke:#EAF2F3;stroke-width:12.24"/>
	<line x1="13719.60" y1="4766.40" x2="13719.60" y2="3501.00" style="stroke:#EAF2F3;stroke-width:12.24"/>
	<rect x="7478.10" y="4324.05" width="5588.55" height="190.35" style="fill:#E37E00"/>
	<rect x="7484.22" y="4330.17" width="5576.31" height="178.11" style="fill:none;stroke:#E37E00;stroke-width:12.24"/>
	<rect x="7478.10" y="4133.70" width="2119.95" height="190.35" style="fill:#55752F"/>
	<rect x="7484.22" y="4139.82" width="2107.71" height="178.11" style="fill:none;stroke:#55752F;stroke-width:12.24"/>
	<rect x="7478.10" y="3943.35" width="4411.80" height="190.35" style="fill:#90353B"/>
	<rect x="7484.22" y="3949.47" width="4399.56" height="178.11" style="fill:none;stroke:#90353B;stroke-width:12.24"/>
	<rect x="7478.10" y="3753.00" width="3257.55" height="190.35" style="fill:#1A476F"/>
	<rect x="7484.22" y="3759.12" width="3245.31" height="178.11" style="fill:none;stroke:#1A476F;stroke-width:12.24"/>
	<text x="13166.55" y="4463.69" style="font-family:'Helvetica';font-size:127.35px;fill:#808080">1343088</text>
	<text x="9697.95" y="4273.34" style="font-family:'Helvetica';font-size:127.35px;fill:#808080">509520</text>
	<text x="11989.80" y="4083.44" style="font-family:'Helvetica';font-size:127.35px;fill:#808080">1060276</text>
	<text x="10835.55" y="3893.09" style="font-family:'Helvetica';font-size:127.35px;fill:#808080">782864</text>
	<line x1="7478.10" y1="4766.40" x2="13933.80" y2="4766.40" style="stroke:#000000;stroke-width:12.24"/>
	<line x1="7478.10" y1="4766.40" x2="7478.10" y2="4851.45" style="stroke:#FFFFFF;stroke-width:12.24"/>
	<text x="7478.10" y="5013.05" style="font-family:'Helvetica';font-size:170.10px;fill:#FFFFff" text-anchor="middle">0</text>
	<line x1="9558.45" y1="4766.40" x2="9558.45" y2="4851.45" style="stroke:#FFFFFF;stroke-width:12.24"/>
	<text x="9558.45" y="5013.05" style="font-family:'Helvetica';font-size:170.10px;fill:#FFFFff" text-anchor="middle">500000</text>
	<line x1="11639.25" y1="4766.40" x2="11639.25" y2="4851.45" style="stroke:#FFFFFF;stroke-width:12.24"/>
	<text x="11639.25" y="5013.05" style="font-family:'Helvetica';font-size:170.10px;fill:#FFFFff" text-anchor="middle">1000000</text>
	<line x1="13719.60" y1="4766.40" x2="13719.60" y2="4851.45" style="stroke:#FFFFFF;stroke-width:12.24"/>
	<text x="13719.60" y="5013.05" style="font-family:'Helvetica';font-size:170.10px;fill:#FFFFff" text-anchor="middle">1500000</text>
	<line x1="7478.10" y1="4766.40" x2="7478.10" y2="3501.00" style="stroke:#000000;stroke-width:12.24"/>
	<text x="10705.95" y="3393.81" style="font-family:'Helvetica';font-size:233.55px;fill:#FFFFff" text-anchor="middle">Total</text>
	<rect x="5705.10" y="5682.15" width="2989.80" height="943.20" style="fill:#FFFFFF"/>
	<rect x="5712.30" y="5689.35" width="2975.40" height="928.80" style="fill:none;stroke:#EAF2F3;stroke-opacity:0.00;stroke-width:14.40"/>
	<rect x="5798.70" y="5703.75" width="432.00" height="149.85" style="fill:#1A476F"/>
	<rect x="5805.90" y="5710.95" width="417.60" height="135.45" style="fill:none;stroke:#1A476F;stroke-width:14.40"/>
	<rect x="5798.70" y="5953.50" width="432.00" height="150.30" style="fill:#90353B"/>
	<rect x="5805.90" y="5960.70" width="417.60" height="135.90" style="fill:none;stroke:#90353B;stroke-width:14.40"/>
	<rect x="5798.70" y="6203.70" width="432.00" height="149.85" style="fill:#55752F"/>
	<rect x="5805.90" y="6210.90" width="417.60" height="135.45" style="fill:none;stroke:#55752F;stroke-width:14.40"/>
	<rect x="5798.70" y="6453.45" width="432.00" height="150.30" style="fill:#E37E00"/>
	<rect x="5805.90" y="6460.65" width="417.60" height="135.90" style="fill:none;stroke:#E37E00;stroke-width:14.40"/>
	<text x="6380.55" y="5831.01" style="font-family:'Helvetica';font-size:149.85px;fill:#000000">Vertical mismatch</text>
	<text x="6380.55" y="6081.21" style="font-family:'Helvetica';font-size:149.85px;fill:#000000">Horizontal undermatch</text>
	<text x="6380.55" y="6330.96" style="font-family:'Helvetica';font-size:149.85px;fill:#000000">Horizontal overmatch</text>
	<text x="6380.55" y="6581.16" style="font-family:'Helvetica';font-size:149.85px;fill:#000000">Matched (vertically &amp; horizontally)</text>
	<text x="7200.00" y="5513.04" style="font-family:'Helvetica';font-size:274.95px;fill:#FFFFff" text-anchor="middle"># of mismatched graduates</text>
	<text x="14104.80" y="6859.62" style="font-family:'Helvetica';font-size:149.85px;fill:#FFFFff" text-anchor="end">Definitions for DACA eligible groups derived from Kuka et al (2020).</text>
	<text x="7200.00" y="550.22" style="font-family:'Helvetica';font-size:300.15px;fill:#FFFFff" text-anchor="middle">Frequency of vertical and horizonal under/overmatch by legal status</text>
</svg>
